<?xml version="1.0" standalone="no"?>
<!DOCTYPE svg PUBLIC "-//W3C//DTD SVG 20010904//EN"
 "http://www.w3.org/TR/2001/REC-SVG-20010904/DTD/svg10.dtd">
<svg version="1.0" xmlns="http://www.w3.org/2000/svg"
 width="250.000000pt" height="250.000000pt" viewBox="0 0 250.000000 250.000000"
 preserveAspectRatio="xMidYMid meet">
<metadata>
Created by potrace 1.14, written by Peter Selinger 2001-2017
</metadata>
<g transform="translate(0.000000,250.000000) scale(0.100000,-0.100000)"
fill="#000000" stroke="none">
<path d="M0 1250 l0 -1250 1250 0 1250 0 0 1250 0 1250 -1250 0 -1250 0 0
-1250z m2060 60 l0 -590 -118 0 -118 0 -128 -122 -128 -121 -71 71 -72 72 155
155 155 155 57 0 58 0 0 380 0 380 -600 0 -600 0 0 -380 0 -380 335 0 335 0 0
-105 0 -105 -440 0 -440 0 0 590 0 590 810 0 810 0 0 -590z"/>
</g>
</svg>
